<svg width="256" height="256" viewBox="0 0 256 256" fill="none" xmlns="http://www.w3.org/2000/svg">
<g clip-path="url(#clip0_473_86)">
<path d="M191.77 89.4901C190.481 70.5725 183.618 52.4604 172.048 37.4382C160.478 22.416 144.719 11.1565 126.757 5.07985C108.796 -0.996751 89.4375 -1.61829 71.1233 3.29364C52.8092 8.20557 36.3598 18.431 23.8499 32.6801L23.5299 33.1301C6.87293 52.254 -1.51108 77.2082 0.219921 102.51C0.399921 105.02 0.689921 107.51 1.04992 109.94C1.04992 110.05 1.04992 110.16 1.09992 110.27C1.33992 111.877 1.61992 113.477 1.93992 115.07V115.16C2.22992 116.6 2.54992 118.02 2.93992 119.43C8.82888 142.648 23.1847 162.825 43.1886 176.001C63.1925 189.176 87.3992 194.397 111.055 190.639C134.712 186.881 156.109 174.415 171.044 155.689C185.98 136.963 193.376 113.33 191.78 89.4301L191.77 89.4901ZM170.88 90.9101C171.312 97.2657 170.932 103.65 169.75 109.91C169.754 109.874 169.754 109.837 169.75 109.8C162.75 92.8001 149.03 80.5101 136.92 73.7201C139.37 44.9001 129.59 32.7201 118.52 30.7801C118.22 30.7201 117.92 30.6701 117.61 30.6301C115.471 30.4348 113.314 30.6722 111.269 31.3281C109.224 31.984 107.331 33.045 105.705 34.4479C104.078 35.8508 102.751 37.5668 101.802 39.4937C100.853 41.4205 100.301 43.5187 100.18 45.6633C100.06 47.8078 100.372 49.9547 101.098 51.976C101.825 53.9973 102.951 55.8516 104.409 57.4284C105.868 59.0052 107.629 60.2722 109.588 61.1538C111.546 62.0355 113.662 62.5137 115.81 62.5601C115.81 63.5601 115.89 64.5601 115.9 65.6401C106.582 63.3052 96.9383 62.5481 87.3699 63.4001C84.0914 63.6122 80.8287 64.0229 77.5999 64.6301C78.6499 54.9201 82.2999 44.0001 89.3899 36.0001C92.8584 32.0492 97.2242 28.9882 102.121 27.0741C107.017 25.16 112.302 24.4488 117.53 25.0001C119.702 25.2351 121.841 25.708 123.91 26.4101L124.19 26.5001C137.219 31.793 148.502 40.6352 156.755 52.0214C165.009 63.4076 169.903 76.881 170.88 90.9101ZM104 105.57C101.568 109.056 98.8162 112.306 95.7799 115.28C91.1684 110.422 87.2604 104.942 84.1699 99.0001C84.0199 98.6901 83.8599 98.4001 83.7099 98.0901C81.9094 94.2313 80.4699 90.2142 79.4099 86.0901C85.9221 84.5315 92.6208 83.8953 99.3099 84.2001L100.31 84.2601C104.538 84.6196 108.722 85.3728 112.81 86.5101C110.899 92.9259 108.099 99.0421 104.49 104.68C104.33 105 104.16 105.29 104 105.57ZM71.1599 25.1901V25.2601C59.9099 39.7801 56.1599 57.8401 56.3299 71.7101C30.1399 84.0001 24.5199 98.5401 28.3299 109.11C28.4299 109.403 28.5399 109.693 28.6599 109.98C29.4728 111.92 30.6599 113.682 32.1534 115.163C33.6469 116.645 35.4176 117.817 37.3644 118.615C39.3112 119.412 41.3959 119.818 43.4996 119.809C45.6032 119.801 47.6846 119.378 49.6249 118.565C51.5652 117.752 53.3264 116.565 54.8079 115.072C56.2894 113.578 57.4622 111.807 58.2594 109.861C59.0566 107.914 59.4625 105.829 59.4541 103.725C59.4456 101.622 59.0228 99.5404 58.2099 97.6001C57.9093 96.9087 57.5583 96.2402 57.1599 95.6001C57.9899 95.0601 58.8799 94.5101 59.8299 93.9601C62.4532 103.198 66.6039 111.932 72.1099 119.8C73.9329 122.526 75.9164 125.14 78.0499 127.63C69.0499 131.56 57.7799 133.86 47.3099 131.72C42.1508 130.696 37.3129 128.449 33.2027 125.167C29.0925 121.885 25.8302 117.665 23.6899 112.86C22.8003 110.862 22.1297 108.773 21.6899 106.63C21.4299 104.81 21.2099 102.96 21.0799 101.09C19.9915 84.7054 24.2982 68.4149 33.3417 54.7088C42.3852 41.0027 55.6681 30.6349 71.1599 25.1901ZM101.09 170.88C81.4444 172.215 62.0651 165.747 47.1599 152.88C65.3599 155.36 82.8699 149.58 94.7999 142.5C118.55 159.04 133.96 156.65 141.21 148.05C141.41 147.82 141.6 147.58 141.79 147.33C144.367 143.947 145.494 139.679 144.924 135.465C144.354 131.252 142.133 127.437 138.75 124.86C135.367 122.284 131.099 121.156 126.885 121.726C122.671 122.297 118.856 124.517 116.28 127.9C115.821 128.506 115.406 129.144 115.04 129.81C114.167 129.363 113.257 128.873 112.31 128.34C118.999 121.434 124.485 113.457 128.54 104.74C129.987 101.791 131.259 98.759 132.35 95.6601C140.24 101.47 147.89 110.1 151.28 120.25C152.971 125.23 153.442 130.542 152.654 135.742C151.866 140.941 149.841 145.875 146.75 150.13C145.46 151.892 143.981 153.509 142.34 154.95L142.27 155.01C130.459 164.334 116.103 169.866 101.09 170.88Z" fill="url(#paint0_linear_473_86)"/>
<path style="mix-blend-mode:multiply" opacity="0.4" d="M89.49 0.23009C64.1743 1.92081 40.5652 13.5923 23.85 32.6801L23.49 33.1001C26.63 36.2201 36.91 42.3701 41.07 44.9301C49.3519 36.0087 59.6784 29.2342 71.16 25.1901C71.98 24.1401 72.82 23.1101 73.71 22.1001C84.56 9.86009 99.37 3.40009 116.54 3.40009C118.45 3.40009 122.35 3.70009 122.43 3.71009C111.736 0.64106 100.589 -0.536635 89.49 0.23009Z" fill="url(#paint1_linear_473_86)"/>
<path style="mix-blend-mode:multiply" opacity="0.4" d="M101.09 170.88C81.4444 172.216 62.0652 165.747 47.16 152.88C45.81 152.7 44.47 152.48 43.16 152.2C27.16 148.93 14.16 139.34 5.54997 124.47C4.60493 122.828 3.74383 121.139 2.96997 119.41C8.46668 141.221 21.4473 160.409 39.6467 173.626C57.8462 186.844 80.1088 193.251 102.55 191.73C102.72 186.93 101.29 175.68 101.09 170.88Z" fill="url(#paint2_linear_473_86)"/>
<path style="mix-blend-mode:multiply" opacity="0.4" d="M191.77 89.49C188.83 89.18 174.42 90.32 170.88 90.91C171.312 97.2656 170.932 103.65 169.75 109.91C170.25 111.13 170.75 112.37 171.14 113.64C176.32 129.15 174.52 145.2 165.93 160.08C164.99 161.7 163.99 163.26 162.93 164.76L162.87 164.84L162.94 164.78C172.934 155.084 180.692 143.323 185.671 130.319C190.65 117.315 192.732 103.381 191.77 89.49Z" fill="url(#paint3_linear_473_86)"/>
<path style="mix-blend-mode:multiply" opacity="0.5" d="M117.53 25.0002C119.702 25.2352 121.841 25.7081 123.91 26.4102L124.19 26.5002C132.429 29.869 140.009 34.6659 146.58 40.6702C149.73 37.0702 155.79 33.1102 155.79 33.1102C149.22 26.9258 141.106 22.6252 132.3 20.6602C122.36 18.6002 99.93 16.6002 85.78 40.6602L85.92 40.5302C86.9697 38.9411 88.1292 37.4274 89.39 36.0002C92.8585 32.0493 97.2243 28.9883 102.121 27.0742C107.017 25.1602 112.302 24.4489 117.53 25.0002Z" fill="url(#paint4_linear_473_86)"/>
<path style="mix-blend-mode:multiply" opacity="0.5" d="M146.75 150.16C145.46 151.923 143.981 153.539 142.34 154.98L142.12 155.18C135.086 160.633 127.144 164.8 118.66 167.49C120.21 172.01 120.6 179.25 120.6 179.25C129.239 176.646 137.02 171.77 143.13 165.13C149.89 157.55 162.83 139.13 149.06 114.84C149.06 114.84 149.06 114.91 149.06 115.02C149.923 116.709 150.665 118.456 151.28 120.25C152.976 125.234 153.45 130.552 152.661 135.757C151.873 140.963 149.846 145.902 146.75 150.16Z" fill="url(#paint5_linear_473_86)"/>
<path style="mix-blend-mode:multiply" opacity="0.5" d="M23.7299 112.89C22.8374 110.893 22.1667 108.804 21.7299 106.66C21.7041 106.565 21.684 106.468 21.6699 106.37C20.4683 97.5516 20.8374 88.59 22.7599 79.9001C22.7589 79.8835 22.7589 79.8668 22.7599 79.8501C18.0599 78.9201 11.5999 75.6401 11.5999 75.6401C9.54394 84.4262 9.88934 93.6035 12.5999 102.21C15.7799 111.86 25.2699 132.28 53.1899 132.5L53.0099 132.44C51.1157 132.346 49.2308 132.116 47.3699 131.75C42.2078 130.728 37.3665 128.481 33.2529 125.199C29.1393 121.917 25.8734 117.696 23.7299 112.89Z" fill="url(#paint6_linear_473_86)"/>
<path style="mix-blend-mode:multiply" opacity="0.6" d="M113.49 62.4601C114.246 62.5544 115.008 62.5945 115.77 62.5802C115.77 62.5802 115.27 52.5801 114.04 47.4801C112.81 42.3801 111.04 38.9801 109.04 37.0601C107.62 35.6801 103.13 33.9701 99.64 44.5201C99.3679 46.608 99.5106 48.7291 100.06 50.7617C100.609 52.7943 101.554 54.6985 102.841 56.3652C104.128 58.0318 105.731 59.4281 107.558 60.474C109.385 61.5199 111.401 62.1949 113.49 62.4601Z" fill="url(#paint7_linear_473_86)"/>
<path style="mix-blend-mode:multiply" opacity="0.5" d="M58.2098 97.6201C57.9192 96.9329 57.5852 96.2649 57.2098 95.6201C57.2098 95.6201 48.8198 101.04 44.9998 104.62C41.1798 108.2 39.1498 111.5 38.4798 114.18C37.9998 116.1 38.7598 120.84 49.6398 118.59C51.581 117.778 53.343 116.591 54.8247 115.097C56.3065 113.603 57.4789 111.831 58.275 109.883C59.071 107.935 59.4751 105.849 59.4639 103.745C59.4527 101.641 59.0265 99.5594 58.2098 97.6201Z" fill="url(#paint8_linear_473_86)"/>
<path style="mix-blend-mode:multiply" opacity="0.6" d="M116.29 127.91C115.835 128.517 115.424 129.155 115.06 129.82C115.06 129.82 123.95 134.38 128.99 135.88C134.03 137.38 137.87 137.5 140.53 136.74C142.43 136.2 146.15 133.17 138.77 124.87C135.385 122.295 131.116 121.168 126.901 121.738C122.686 122.308 118.869 124.528 116.29 127.91Z" fill="url(#paint9_linear_473_86)"/>
<path style="mix-blend-mode:multiply" opacity="0.3" d="M112.84 86.55C110.93 92.9658 108.129 99.082 104.52 104.72C104.33 105.01 104.16 105.29 103.97 105.57C101.538 109.056 98.7863 112.306 95.75 115.28C97.9982 117.683 100.4 119.938 102.94 122.03C105.907 124.37 109.045 126.483 112.33 128.35C119.019 121.444 124.505 113.467 128.56 104.75C130.007 101.801 131.28 98.769 132.37 95.67C129.281 93.3673 125.944 91.4184 122.42 89.86C119.304 88.5444 116.104 87.4386 112.84 86.55Z" fill="url(#paint10_linear_473_86)"/>
<path style="mix-blend-mode:multiply" opacity="0.3" d="M47.1599 152.92C65.3599 155.4 82.8699 149.62 94.7999 142.54C93.3799 141.54 91.9399 140.54 90.4699 139.38C85.925 135.915 81.7615 131.976 78.0499 127.63C69.0499 131.56 57.7799 133.86 47.3099 131.72C42.1509 130.696 37.3129 128.449 33.2027 125.167C29.0925 121.885 25.8302 117.665 23.6899 112.86C22.8003 110.862 22.1297 108.773 21.6899 106.63C24.2682 124.644 33.3232 141.101 47.1599 152.92Z" fill="url(#paint11_linear_473_86)"/>
<path style="mix-blend-mode:multiply" opacity="0.3" d="M95.7299 115.31C91.1337 110.44 87.2425 104.95 84.1699 99.0001C84.0199 98.6901 83.8599 98.4001 83.7099 98.0901C81.9093 94.2313 80.4699 90.2142 79.4099 86.0901C76.2131 86.8537 73.0697 87.8258 69.9999 89.0001C66.497 90.4051 63.1071 92.0767 59.8599 94.0001C62.4781 103.222 66.6184 111.942 72.1099 119.8C73.9328 122.526 75.9163 125.14 78.0499 127.63C81.5907 126.112 84.9459 124.192 88.0499 121.91C90.7592 119.89 93.3254 117.685 95.7299 115.31Z" fill="url(#paint12_linear_473_86)"/>
<path style="mix-blend-mode:multiply" opacity="0.3" d="M71.1099 25.2602C59.8599 39.7802 56.1099 57.8402 56.2799 71.7102C57.8499 70.9702 59.4799 70.2502 61.1999 69.5302C66.4665 67.3329 71.9502 65.6972 77.5599 64.6502C78.6499 54.9202 82.2999 44.0002 89.3899 36.0002C92.8584 32.0493 97.2242 28.9883 102.121 27.0742C107.017 25.1601 112.302 24.4489 117.53 25.0002C119.702 25.2352 121.841 25.708 123.91 26.4102L124.19 26.5002C107.27 19.625 88.4199 19.1733 71.1899 25.2302V25.3002L71.1099 25.2602Z" fill="url(#paint13_linear_473_86)"/>
<path style="mix-blend-mode:multiply" opacity="0.3" d="M169.71 109.82C162.71 92.82 148.99 80.53 136.88 73.74C136.73 75.47 136.55 77.25 136.31 79.09C135.573 84.7536 134.232 90.322 132.31 95.7C140.2 101.51 147.85 110.14 151.24 120.29C152.931 125.27 153.402 130.582 152.614 135.782C151.825 140.981 149.801 145.915 146.71 150.17C145.42 151.932 143.941 153.549 142.3 154.99L142.23 155.05C156.541 143.825 166.303 127.796 169.71 109.93C169.714 109.893 169.714 109.857 169.71 109.82Z" fill="url(#paint14_linear_473_86)"/>
<path style="mix-blend-mode:multiply" opacity="0.3" d="M77.5099 76.2C77.9118 79.5486 78.5399 82.8662 79.3899 86.13C85.902 84.5714 92.6008 83.9352 99.2899 84.24L100.29 84.3C104.517 84.6595 108.702 85.4127 112.79 86.55C113.756 83.4179 114.524 80.2283 115.09 77C115.629 73.2545 115.886 69.4739 115.86 65.69C106.542 63.3552 96.8983 62.598 87.3299 63.45C84.0514 63.6621 80.7887 64.0729 77.5599 64.68C77.1061 68.5056 77.0893 72.3705 77.5099 76.2Z" fill="url(#paint15_linear_473_86)"/>
<path d="M160 256C178.987 256 197.548 250.37 213.335 239.821C229.122 229.273 241.426 214.279 248.692 196.738C255.958 179.196 257.86 159.894 254.155 141.271C250.451 122.649 241.308 105.544 227.882 92.1178C214.456 78.692 197.351 69.5488 178.729 65.8447C160.107 62.1405 140.804 64.0416 123.262 71.3076C105.721 78.5736 90.7276 90.8782 80.1789 106.665C69.6303 122.452 64 141.013 64 160C63.9697 172.615 66.4321 185.113 71.2458 196.774C76.0595 208.434 83.1297 219.029 92.0501 227.95C100.971 236.87 111.566 243.941 123.227 248.754C134.888 253.568 147.385 256.03 160 256Z" fill="#2775CA"/>
<path d="M186.4 175.2C186.4 161.2 178 156.4 161.2 154.4C149.2 152.8 146.8 149.6 146.8 144C146.8 138.4 150.8 134.8 158.8 134.8C166 134.8 170 137.2 172 143.2C172.205 143.78 172.584 144.284 173.085 144.641C173.586 144.999 174.184 145.194 174.8 145.2H181.2C181.57 145.21 181.939 145.144 182.283 145.007C182.627 144.869 182.939 144.663 183.201 144.401C183.463 144.139 183.669 143.827 183.806 143.483C183.944 143.139 184.01 142.77 184 142.4V142C183.223 137.666 181.038 133.71 177.784 130.745C174.529 127.78 170.387 125.971 166 125.6V116C166 114.4 164.8 113.2 162.8 112.8H156.8C155.2 112.8 154 114 153.6 116V125.2C141.6 126.8 134 134.8 134 144.8C134 158 142 163.2 158.8 165.2C170 167.2 173.6 169.6 173.6 176C173.6 182.4 168 186.8 160.4 186.8C150 186.8 146.4 182.4 145.2 176.4C145.081 175.739 144.737 175.139 144.227 174.702C143.717 174.265 143.072 174.017 142.4 174H135.6C135.23 173.99 134.861 174.056 134.517 174.194C134.173 174.331 133.861 174.537 133.599 174.799C133.337 175.061 133.131 175.373 132.994 175.717C132.856 176.061 132.79 176.43 132.8 176.8V177.2C134.4 187.2 140.8 194.4 154 196.4V206C154 207.6 155.2 208.8 157.2 209.2H163.2C164.8 209.2 166 208 166.4 206V196.4C178.4 194.4 186.4 186 186.4 175.2Z" fill="white"/>
<path d="M139.6 217.2C128.09 212.979 118.153 205.326 111.134 195.275C104.114 185.224 100.35 173.26 100.35 161C100.35 148.74 104.114 136.776 111.134 126.725C118.153 116.674 128.09 109.021 139.6 104.8C140.368 104.468 141.013 103.904 141.443 103.186C141.874 102.469 142.069 101.634 142 100.8V95.2C142.063 94.4648 141.854 93.732 141.411 93.1416C140.968 92.5513 140.323 92.1448 139.6 92C139.036 91.9401 138.469 92.0818 138 92.4C123.447 97.0382 110.746 106.184 101.734 118.516C92.7214 130.848 87.864 145.726 87.864 161C87.864 176.274 92.7214 191.152 101.734 203.484C110.746 215.816 123.447 224.962 138 229.6C138.332 229.793 138.706 229.905 139.09 229.926C139.474 229.947 139.857 229.876 140.209 229.72C140.56 229.564 140.87 229.327 141.111 229.028C141.353 228.729 141.521 228.376 141.6 228C142 227.6 142 227.2 142 226.4V220.8C142 219.6 140.8 218 139.6 217.2ZM182 92.4C181.667 92.2066 181.294 92.0948 180.91 92.0739C180.526 92.053 180.142 92.1236 179.791 92.2798C179.439 92.436 179.13 92.6734 178.888 92.9724C178.646 93.2715 178.479 93.6236 178.4 94C178 94.4 178 94.8 178 95.6V101.2C178.068 102.006 178.32 102.785 178.736 103.478C179.152 104.172 179.721 104.76 180.4 105.2C191.91 109.421 201.846 117.074 208.866 127.125C215.885 137.176 219.65 149.14 219.65 161.4C219.65 173.66 215.885 185.624 208.866 195.675C201.846 205.726 191.91 213.379 180.4 217.6C179.632 217.932 178.987 218.496 178.556 219.214C178.126 219.931 177.931 220.766 178 221.6V227.2C177.936 227.935 178.146 228.668 178.589 229.258C179.031 229.849 179.676 230.255 180.4 230.4C180.964 230.46 181.531 230.318 182 230C196.554 225.306 209.245 216.117 218.248 203.754C227.25 191.392 232.1 176.493 232.1 161.2C232.1 145.907 227.25 131.008 218.248 118.646C209.245 106.283 196.554 97.0943 182 92.4Z" fill="white"/>
</g>
<defs>
<linearGradient id="paint0_linear_473_86" x1="30.4899" y1="161.52" x2="152.9" y2="39.1001" gradientUnits="userSpaceOnUse">
<stop stop-color="#E6007A"/>
<stop offset="0.21" stop-color="#703AC2"/>
<stop offset="0.46" stop-color="#0070EB"/>
<stop offset="0.77" stop-color="#0297FB"/>
<stop offset="1" stop-color="#0AE2FF"/>
</linearGradient>
<linearGradient id="paint1_linear_473_86" x1="90.97" y1="13.9401" x2="59.7" y2="23.0401" gradientUnits="userSpaceOnUse">
<stop stop-color="#231F20"/>
<stop offset="1" stop-color="white"/>
</linearGradient>
<linearGradient id="paint2_linear_473_86" x1="31.87" y1="133.22" x2="58.02" y2="160.51" gradientUnits="userSpaceOnUse">
<stop stop-color="#231F20"/>
<stop offset="1" stop-color="white"/>
</linearGradient>
<linearGradient id="paint3_linear_473_86" x1="172.25" y1="129.11" x2="181.35" y2="101.43" gradientUnits="userSpaceOnUse">
<stop stop-color="#231F20"/>
<stop offset="1" stop-color="white"/>
</linearGradient>
<linearGradient id="paint4_linear_473_86" x1="105.22" y1="29.7702" x2="147.15" y2="39.3702" gradientUnits="userSpaceOnUse">
<stop stop-color="#231F20"/>
<stop offset="1" stop-color="white"/>
</linearGradient>
<linearGradient id="paint5_linear_473_86" x1="148.751" y1="137.105" x2="119.472" y2="168.617" gradientUnits="userSpaceOnUse">
<stop stop-color="#231F20"/>
<stop offset="1" stop-color="white"/>
</linearGradient>
<linearGradient id="paint6_linear_473_86" x1="34.0322" y1="121.15" x2="21.3811" y2="80.0376" gradientUnits="userSpaceOnUse">
<stop stop-color="#231F20"/>
<stop offset="1" stop-color="white"/>
</linearGradient>
<linearGradient id="paint7_linear_473_86" x1="114.39" y1="45.2301" x2="101.12" y2="58.5001" gradientUnits="userSpaceOnUse">
<stop stop-color="#231F20"/>
<stop offset="1" stop-color="white"/>
</linearGradient>
<linearGradient id="paint8_linear_473_86" x1="42.8399" y1="105.455" x2="60.967" y2="110.312" gradientUnits="userSpaceOnUse">
<stop stop-color="#231F20"/>
<stop offset="1" stop-color="white"/>
</linearGradient>
<linearGradient id="paint9_linear_473_86" x1="130.764" y1="137.293" x2="125.915" y2="119.171" gradientUnits="userSpaceOnUse">
<stop stop-color="#231F20"/>
<stop offset="1" stop-color="white"/>
</linearGradient>
<linearGradient id="paint10_linear_473_86" x1="103.18" y1="121.18" x2="111.14" y2="110.19" gradientUnits="userSpaceOnUse">
<stop stop-color="#231F20"/>
<stop offset="1" stop-color="white"/>
</linearGradient>
<linearGradient id="paint11_linear_473_86" x1="75.7699" y1="116.43" x2="59.8499" y2="124.01" gradientUnits="userSpaceOnUse">
<stop stop-color="#231F20"/>
<stop offset="1" stop-color="white"/>
</linearGradient>
<linearGradient id="paint12_linear_473_86" x1="69.9899" y1="89.9201" x2="74.9199" y2="100.16" gradientUnits="userSpaceOnUse">
<stop stop-color="#231F20"/>
<stop offset="1" stop-color="white"/>
</linearGradient>
<linearGradient id="paint13_linear_473_86" x1="92.9199" y1="58.3102" x2="89.5099" y2="46.5602" gradientUnits="userSpaceOnUse">
<stop stop-color="#231F20"/>
<stop offset="1" stop-color="white"/>
</linearGradient>
<linearGradient id="paint14_linear_473_86" x1="129.69" y1="112.12" x2="139.54" y2="114.39" gradientUnits="userSpaceOnUse">
<stop stop-color="#231F20"/>
<stop offset="1" stop-color="white"/>
</linearGradient>
<linearGradient id="paint15_linear_473_86" x1="114.22" y1="78.82" x2="101.71" y2="76.55" gradientUnits="userSpaceOnUse">
<stop stop-color="#231F20"/>
<stop offset="1" stop-color="white"/>
</linearGradient>
<clipPath id="clip0_473_86">
<rect width="256" height="256" fill="white"/>
</clipPath>
</defs>
</svg>
