<svg width="256" height="256" viewBox="0 0 256 256" fill="none" xmlns="http://www.w3.org/2000/svg">
<g clip-path="url(#clip0_525_48)">
<path d="M191.77 89.5148C190.481 70.5921 183.618 52.4749 172.048 37.4485C160.478 22.4221 144.719 11.1595 126.757 5.08125C108.796 -0.997032 89.4375 -1.61874 71.1233 3.29455C52.8092 8.20784 36.3598 18.4361 23.8499 32.6891V32.6891L23.5299 33.1392C6.87293 52.2685 -1.51108 77.2296 0.219921 102.538C0.399921 105.049 0.689921 107.54 1.04992 109.97C1.04992 110.081 1.04992 110.191 1.09992 110.301C1.33992 111.908 1.61992 113.508 1.93992 115.102V115.192C2.22992 116.632 2.54992 118.053 2.93992 119.463C8.82888 142.687 23.1847 162.87 43.1886 176.049C63.1925 189.228 87.3992 194.451 111.055 190.692C134.712 186.933 156.109 174.463 171.044 155.732C185.98 137.001 193.376 113.361 191.78 89.4548L191.77 89.5148ZM170.88 90.9352C171.312 97.2926 170.932 103.679 169.75 109.94C169.754 109.904 169.754 109.867 169.75 109.83V109.83C162.75 92.8257 149.03 80.5323 136.92 73.7405C139.37 44.9125 129.59 32.7291 118.52 30.7886C118.22 30.7286 117.92 30.6786 117.61 30.6385C115.471 30.4432 113.314 30.6806 111.269 31.3367C109.224 31.9929 107.331 33.0542 105.705 34.4574C104.078 35.8607 102.751 37.5772 101.802 39.5046C100.853 41.432 100.301 43.5308 100.18 45.6759C100.06 47.821 100.372 49.9685 101.098 51.9904C101.825 54.0122 102.951 55.8671 104.409 57.4443C105.868 59.0215 107.629 60.2889 109.588 61.1708C111.546 62.0526 113.662 62.531 115.81 62.5774C115.81 63.5777 115.89 64.5779 115.9 65.6582C106.582 63.3227 96.9383 62.5654 87.3699 63.4176C84.0914 63.6298 80.8287 64.0406 77.5999 64.6479C78.6499 54.9353 82.2999 44.0122 89.3899 36.01C92.8584 32.058 97.2242 28.9962 102.121 27.0816C107.017 25.167 112.302 24.4555 117.53 25.007C119.702 25.2421 121.841 25.7151 123.91 26.4174L124.19 26.5074C137.219 31.8018 148.502 40.6464 156.755 52.0358C165.009 63.4251 169.903 76.9023 170.88 90.9352V90.9352ZM104 105.599C101.568 109.086 98.8162 112.337 95.7799 115.312C91.1684 110.453 87.2604 104.971 84.1699 99.0275C84.0199 98.7174 83.8599 98.4273 83.7099 98.1172C81.9094 94.2574 80.4699 90.2391 79.4099 86.1139C85.9221 84.5549 92.6208 83.9185 99.3099 84.2234L100.31 84.2834C104.538 84.643 108.722 85.3964 112.81 86.534C110.899 92.9515 108.099 99.0694 104.49 104.709C104.33 105.029 104.16 105.319 104 105.599ZM71.1599 25.197V25.2671C59.9099 39.7911 56.1599 57.8561 56.3299 71.7299C30.1399 84.0233 24.5199 98.5673 28.3299 109.14C28.4299 109.434 28.5399 109.724 28.6599 110.01C29.4728 111.951 30.6599 113.713 32.1534 115.195C33.6469 116.677 35.4176 117.85 37.3644 118.647C39.3112 119.445 41.3959 119.851 43.4996 119.842C45.6033 119.834 47.6846 119.411 49.6249 118.598C51.5652 117.785 53.3264 116.597 54.8079 115.103C56.2894 113.609 57.4622 111.838 58.2594 109.891C59.0566 107.944 59.4625 105.858 59.4541 103.754C59.4456 101.65 59.0228 99.5679 58.2099 97.6271C57.9093 96.9354 57.5583 96.2668 57.1599 95.6265C57.9899 95.0864 58.8799 94.5362 59.8299 93.9861C62.4532 103.227 66.6039 111.963 72.1099 119.833C73.9329 122.559 75.9164 125.175 78.0499 127.665C69.0499 131.596 57.7799 133.897 47.3099 131.757C42.1508 130.732 37.3129 128.484 33.2027 125.202C29.0925 121.919 25.8302 117.697 23.6899 112.891C22.8003 110.892 22.1297 108.803 21.6899 106.66C21.4299 104.839 21.2099 102.989 21.0799 101.118C19.9915 84.7288 24.2982 68.4339 33.3417 54.7239C42.3852 41.014 55.6681 30.6433 71.1599 25.197V25.197ZM101.09 170.927C81.4444 172.263 62.0651 165.793 47.1599 152.922C65.3599 155.403 82.8699 149.621 94.7999 142.539C118.55 159.084 133.96 156.693 141.21 148.091C141.41 147.861 141.6 147.621 141.79 147.371C144.366 143.987 145.494 139.718 144.924 135.503C144.354 131.288 142.133 127.472 138.75 124.895C135.367 122.317 131.099 121.19 126.885 121.76C122.671 122.33 118.857 124.552 116.28 127.935C115.821 128.541 115.406 129.18 115.04 129.846C114.167 129.399 113.257 128.909 112.31 128.376C118.999 121.468 124.485 113.489 128.54 104.769C129.987 101.819 131.259 98.7863 132.35 95.6865C140.24 101.498 147.89 110.131 151.28 120.283C152.971 125.264 153.442 130.578 152.654 135.779C151.866 140.98 149.841 145.916 146.75 150.172C145.46 151.934 143.981 153.551 142.34 154.993L142.27 155.053C130.459 164.379 116.103 169.913 101.09 170.927V170.927Z" fill="url(#paint0_linear_525_48)"/>
<path style="mix-blend-mode:multiply" opacity="0.4" d="M89.49 0.230153C64.1743 1.92134 40.5652 13.596 23.85 32.6891L23.49 33.1092C26.63 36.2301 36.91 42.3818 41.07 44.9425C49.3519 36.0186 59.6784 29.2423 71.16 25.1971C71.98 24.1468 72.82 23.1165 73.71 22.1062C84.56 9.86282 99.37 3.40103 116.54 3.40103C118.45 3.40103 122.35 3.70111 122.43 3.71111C111.736 0.641237 100.589 -0.536785 89.49 0.230153Z" fill="url(#paint1_linear_525_48)"/>
<path style="mix-blend-mode:multiply" opacity="0.4" d="M101.09 170.928C81.4444 172.263 62.0652 165.793 47.16 152.923V152.923C45.81 152.743 44.47 152.522 43.16 152.242C27.16 148.972 14.16 139.379 5.54997 124.505C4.60493 122.862 3.74383 121.173 2.96997 119.443C8.46668 141.26 21.4473 160.453 39.6467 173.674C57.8462 186.895 80.1088 193.305 102.55 191.783C102.72 186.982 101.29 175.729 101.09 170.928Z" fill="url(#paint2_linear_525_48)"/>
<path style="mix-blend-mode:multiply" opacity="0.4" d="M191.77 89.5149C188.83 89.2048 174.42 90.3451 170.88 90.9353C171.312 97.2927 170.932 103.679 169.75 109.941C170.25 111.161 170.75 112.401 171.14 113.672C176.32 129.186 174.52 145.24 165.93 160.124C164.99 161.745 163.99 163.305 162.93 164.806L162.87 164.886L162.94 164.826C172.934 155.127 180.692 143.363 185.671 130.356C190.65 117.348 192.732 103.41 191.77 89.5149Z" fill="url(#paint3_linear_525_48)"/>
<path style="mix-blend-mode:multiply" opacity="0.5" d="M117.53 25.0071C119.702 25.2422 121.841 25.7152 123.91 26.4175L124.19 26.5075C132.429 29.8772 140.009 34.6755 146.58 40.6814V40.6814C149.73 37.0804 155.79 33.1193 155.79 33.1193C149.22 26.9332 141.106 22.6314 132.3 20.6659C122.36 18.6053 99.93 16.6048 85.78 40.6714L85.92 40.5414C86.9697 38.9519 88.1292 37.4378 89.39 36.0101C92.8585 32.0581 97.2243 28.9963 102.121 27.0817C107.017 25.1671 112.302 24.4556 117.53 25.0071V25.0071Z" fill="url(#paint4_linear_525_48)"/>
<path style="mix-blend-mode:multiply" opacity="0.5" d="M146.75 150.201C145.46 151.964 143.981 153.581 142.34 155.023L142.12 155.223C135.086 160.677 127.144 164.846 118.66 167.536V167.536C120.21 172.057 120.6 179.299 120.6 179.299C129.239 176.695 137.02 171.817 143.13 165.175C149.89 157.593 162.83 139.168 149.06 114.872C149.06 114.872 149.06 114.942 149.06 115.052C149.923 116.741 150.665 118.489 151.28 120.283C152.976 125.268 153.45 130.588 152.661 135.795C151.873 141.001 149.846 145.942 146.75 150.201V150.201Z" fill="url(#paint5_linear_525_48)"/>
<path style="mix-blend-mode:multiply" opacity="0.5" d="M23.7299 112.921C22.8374 110.924 22.1667 108.834 21.7299 106.69C21.7041 106.594 21.684 106.497 21.6699 106.4C20.4683 97.5787 20.8374 88.6146 22.7599 79.9223C22.7589 79.9057 22.7589 79.889 22.7599 79.8723C18.0599 78.942 11.5999 75.6611 11.5999 75.6611C9.54394 84.4496 9.88934 93.6294 12.5999 102.238C15.7799 111.891 25.2699 132.317 53.1899 132.537L53.0099 132.477C51.1157 132.383 49.2308 132.152 47.3699 131.787C42.2078 130.764 37.3665 128.517 33.2529 125.234C29.1393 121.951 25.8734 117.729 23.7299 112.921V112.921Z" fill="url(#paint6_linear_525_48)"/>
<path style="mix-blend-mode:multiply" opacity="0.6" d="M113.49 62.4772C114.246 62.5715 115.008 62.6116 115.77 62.5973C115.77 62.5973 115.27 52.5945 114.04 47.4931C112.81 42.3917 111.04 38.9907 109.04 37.0702C107.62 35.6898 103.13 33.9793 99.64 44.5323C99.3679 46.6207 99.5106 48.7424 100.06 50.7755C100.609 52.8087 101.554 54.7135 102.841 56.3806C104.128 58.0477 105.731 59.4444 107.558 60.4906C109.385 61.5367 111.401 62.2119 113.49 62.4772Z" fill="url(#paint7_linear_525_48)"/>
<path style="mix-blend-mode:multiply" opacity="0.5" d="M58.2098 97.647C57.9192 96.9597 57.5852 96.2915 57.2098 95.6465C57.2098 95.6465 48.8198 101.068 44.9998 104.649C41.1798 108.23 39.1498 111.531 38.4798 114.212C37.9998 116.132 38.7598 120.873 49.6398 118.623C51.581 117.81 53.343 116.623 54.8247 115.128C56.3065 113.634 57.4789 111.862 58.275 109.913C59.071 107.965 59.4751 105.878 59.4639 103.774C59.4527 101.669 59.0265 99.5869 58.2098 97.647V97.647Z" fill="url(#paint8_linear_525_48)"/>
<path style="mix-blend-mode:multiply" opacity="0.6" d="M116.29 127.945C115.835 128.552 115.424 129.19 115.06 129.856C115.06 129.856 123.95 134.417 128.99 135.918C134.03 137.418 137.87 137.538 140.53 136.778C142.43 136.238 146.15 133.207 138.77 124.905C135.385 122.328 131.116 121.202 126.901 121.772C122.686 122.342 118.869 124.562 116.29 127.945V127.945Z" fill="url(#paint9_linear_525_48)"/>
<path style="mix-blend-mode:multiply" opacity="0.3" d="M112.84 86.5742C110.93 92.9918 108.129 99.1097 104.52 104.749C104.33 105.039 104.16 105.319 103.97 105.599C101.538 109.086 98.7863 112.338 95.75 115.312C97.9982 117.716 100.4 119.971 102.94 122.064C105.907 124.405 109.045 126.518 112.33 128.386C119.019 121.478 124.505 113.499 128.56 104.779C130.007 101.829 131.28 98.7965 132.37 95.6967C129.281 93.3933 125.944 91.4439 122.42 89.8851C119.304 88.5691 116.104 87.463 112.84 86.5742V86.5742Z" fill="url(#paint10_linear_525_48)"/>
<path style="mix-blend-mode:multiply" opacity="0.3" d="M47.1599 152.962C65.3599 155.443 82.8699 149.661 94.7999 142.579C93.3799 141.579 91.9399 140.579 90.4699 139.418C85.925 135.952 81.7615 132.012 78.0499 127.665C69.0499 131.596 57.7799 133.897 47.3099 131.756C42.1509 130.732 37.3129 128.484 33.2027 125.201C29.0925 121.919 25.8302 117.697 23.6899 112.891C22.8003 110.892 22.1297 108.803 21.6899 106.659C24.2682 124.678 33.3232 141.14 47.1599 152.962V152.962Z" fill="url(#paint11_linear_525_48)"/>
<path style="mix-blend-mode:multiply" opacity="0.3" d="M95.7299 115.342C91.1337 110.47 87.2425 104.979 84.1699 99.0273C84.0199 98.7173 83.8599 98.4272 83.7099 98.1171C81.9093 94.2573 80.4699 90.239 79.4099 86.1138C76.2131 86.8776 73.0697 87.85 69.9999 89.0246C66.497 90.43 63.1071 92.102 59.8599 94.026C62.4781 103.251 66.6184 111.973 72.1099 119.833C73.9328 122.559 75.9163 125.175 78.0499 127.665C81.5907 126.146 84.9459 124.227 88.0499 121.944C90.7592 119.923 93.3254 117.717 95.7299 115.342Z" fill="url(#paint12_linear_525_48)"/>
<path style="mix-blend-mode:multiply" opacity="0.3" d="M71.1099 25.2672C59.8599 39.7912 56.1099 57.8562 56.2799 71.73C57.8499 70.9898 59.4799 70.2696 61.1999 69.5494C66.4665 67.3515 71.9502 65.7154 77.5599 64.6681C78.6499 54.9354 82.2999 44.0124 89.3899 36.0102C92.8584 32.0582 97.2242 28.9963 102.121 27.0817C107.017 25.1671 112.302 24.4557 117.53 25.0071C119.702 25.2422 121.841 25.7152 123.91 26.4175L124.19 26.5075C107.27 19.6304 88.4199 19.1786 71.1899 25.2372V25.3072L71.1099 25.2672Z" fill="url(#paint13_linear_525_48)"/>
<path style="mix-blend-mode:multiply" opacity="0.3" d="M169.71 109.851C162.71 92.846 148.99 80.5526 136.88 73.7607C136.73 75.4912 136.55 77.2717 136.31 79.1122C135.573 84.7774 134.232 90.3473 132.31 95.7268C140.2 101.538 147.85 110.171 151.24 120.324C152.931 125.305 153.402 130.619 152.614 135.82C151.825 141.02 149.801 145.956 146.71 150.212C145.42 151.975 143.941 153.591 142.3 155.033L142.23 155.093C156.541 143.865 166.303 127.832 169.71 109.961C169.714 109.924 169.714 109.887 169.71 109.851V109.851Z" fill="url(#paint14_linear_525_48)"/>
<path style="mix-blend-mode:multiply" opacity="0.3" d="M77.5099 76.2214C77.9118 79.571 78.5399 82.8895 79.3899 86.1542C85.902 84.5952 92.6008 83.9588 99.2899 84.2637L100.29 84.3237C104.517 84.6833 108.702 85.4367 112.79 86.5743C113.756 83.4413 114.524 80.2508 115.09 77.0217C115.629 73.2752 115.886 69.4935 115.86 65.7085C106.542 63.3731 96.8983 62.6157 87.3299 63.4679C84.0514 63.6801 80.7887 64.091 77.5599 64.6982C77.1061 68.525 77.0893 72.3909 77.5099 76.2214V76.2214Z" fill="url(#paint15_linear_525_48)"/>
<path d="M160 256C213.019 256 256 213.019 256 160C256 106.981 213.019 64 160 64C106.981 64 64 106.981 64 160C64 213.019 106.981 256 160 256Z" fill="#627EEA"/>
<path d="M162.988 88V141.22L207.97 161.32L162.988 88Z" fill="white" fill-opacity="0.602"/>
<path d="M162.988 88L118 161.32L162.988 141.22V88Z" fill="white"/>
<path d="M162.988 195.808V231.97L208 169.696L162.988 195.808Z" fill="white" fill-opacity="0.602"/>
<path d="M162.988 231.97V195.802L118 169.696L162.988 231.97Z" fill="white"/>
<path d="M162.988 187.438L207.97 161.32L162.988 141.232V187.438Z" fill="white" fill-opacity="0.2"/>
<path d="M118 161.32L162.988 187.438V141.232L118 161.32Z" fill="white" fill-opacity="0.602"/>
</g>
<defs>
<linearGradient id="paint0_linear_525_48" x1="30.4899" y1="161.565" x2="152.934" y2="39.1447" gradientUnits="userSpaceOnUse">
<stop stop-color="#E6007A"/>
<stop offset="0.21" stop-color="#703AC2"/>
<stop offset="0.46" stop-color="#0070EB"/>
<stop offset="0.77" stop-color="#0297FB"/>
<stop offset="1" stop-color="#0AE2FF"/>
</linearGradient>
<linearGradient id="paint1_linear_525_48" x1="90.97" y1="13.9439" x2="59.6986" y2="23.0418" gradientUnits="userSpaceOnUse">
<stop stop-color="#231F20"/>
<stop offset="1" stop-color="white"/>
</linearGradient>
<linearGradient id="paint2_linear_525_48" x1="31.87" y1="133.257" x2="58.0275" y2="160.547" gradientUnits="userSpaceOnUse">
<stop stop-color="#231F20"/>
<stop offset="1" stop-color="white"/>
</linearGradient>
<linearGradient id="paint3_linear_525_48" x1="172.25" y1="129.146" x2="181.354" y2="101.46" gradientUnits="userSpaceOnUse">
<stop stop-color="#231F20"/>
<stop offset="1" stop-color="white"/>
</linearGradient>
<linearGradient id="paint4_linear_525_48" x1="105.22" y1="29.7784" x2="147.151" y2="39.376" gradientUnits="userSpaceOnUse">
<stop stop-color="#231F20"/>
<stop offset="1" stop-color="white"/>
</linearGradient>
<linearGradient id="paint5_linear_525_48" x1="148.751" y1="137.143" x2="119.463" y2="168.656" gradientUnits="userSpaceOnUse">
<stop stop-color="#231F20"/>
<stop offset="1" stop-color="white"/>
</linearGradient>
<linearGradient id="paint6_linear_525_48" x1="34.0322" y1="121.184" x2="21.3747" y2="80.0618" gradientUnits="userSpaceOnUse">
<stop stop-color="#231F20"/>
<stop offset="1" stop-color="white"/>
</linearGradient>
<linearGradient id="paint7_linear_525_48" x1="114.39" y1="45.2425" x2="101.116" y2="58.5125" gradientUnits="userSpaceOnUse">
<stop stop-color="#231F20"/>
<stop offset="1" stop-color="white"/>
</linearGradient>
<linearGradient id="paint8_linear_525_48" x1="42.8399" y1="105.484" x2="60.9677" y2="110.34" gradientUnits="userSpaceOnUse">
<stop stop-color="#231F20"/>
<stop offset="1" stop-color="white"/>
</linearGradient>
<linearGradient id="paint9_linear_525_48" x1="130.764" y1="137.331" x2="125.913" y2="119.205" gradientUnits="userSpaceOnUse">
<stop stop-color="#231F20"/>
<stop offset="1" stop-color="white"/>
</linearGradient>
<linearGradient id="paint10_linear_525_48" x1="103.18" y1="121.214" x2="111.143" y2="110.223" gradientUnits="userSpaceOnUse">
<stop stop-color="#231F20"/>
<stop offset="1" stop-color="white"/>
</linearGradient>
<linearGradient id="paint11_linear_525_48" x1="75.7699" y1="116.462" x2="59.8483" y2="124.041" gradientUnits="userSpaceOnUse">
<stop stop-color="#231F20"/>
<stop offset="1" stop-color="white"/>
</linearGradient>
<linearGradient id="paint12_linear_525_48" x1="69.9899" y1="89.9448" x2="74.9221" y2="100.187" gradientUnits="userSpaceOnUse">
<stop stop-color="#231F20"/>
<stop offset="1" stop-color="white"/>
</linearGradient>
<linearGradient id="paint13_linear_525_48" x1="92.9199" y1="58.3263" x2="89.5082" y2="46.5736" gradientUnits="userSpaceOnUse">
<stop stop-color="#231F20"/>
<stop offset="1" stop-color="white"/>
</linearGradient>
<linearGradient id="paint14_linear_525_48" x1="129.69" y1="112.151" x2="139.54" y2="114.421" gradientUnits="userSpaceOnUse">
<stop stop-color="#231F20"/>
<stop offset="1" stop-color="white"/>
</linearGradient>
<linearGradient id="paint15_linear_525_48" x1="114.22" y1="78.8422" x2="101.71" y2="76.5727" gradientUnits="userSpaceOnUse">
<stop stop-color="#231F20"/>
<stop offset="1" stop-color="white"/>
</linearGradient>
<clipPath id="clip0_525_48">
<rect width="256" height="256" fill="white"/>
</clipPath>
</defs>
</svg>
